#!OML:ASF H:\Dans Jumps\Project 1\Capture day 1\Session 1\subject.ASF
:FULLY-SPECIFIED
:DEGREES
458
root 0.025708 16.6085 7.70794 3.81476 0.876679 -1.10005
lowerback 10.4635 -1.44192 -0.696587
upperback 4.0068 -1.93165 1.77224
thorax -1.60841 -0.978592 2.45074
lowerneck -12.7239 1.01988 -1.2838
upperneck 24.5857 1.51367 0.790558
head 9.87719 0.663449 0.676592
rclavicle 6.75868e-015 -4.57205e-015
rhumerus -18.6743 -14.5699 -82.2842
rradius 24.7073
rwrist 39.3657
rhand -21.3963 -26.952
rfingers 7.12502
rthumb 4.99172 -56.8732
lclavicle 6.75868e-015 -4.57205e-015
lhumerus -10.151 -1.52162 90.3076
lradius 20.4073
lwrist 14.7327
lhand -25.0767 -9.53843
lfingers 7.12502
lthumb 1.43747 20.4365
rfemur -36.2084 -0.872976 19.381
rtibia 50.7883
rfoot -12.9714 -3.16693
rtoes 8.52061
lfemur -35.4026 7.71587 -20.1379
ltibia 44.4832
lfoot -12.2363 2.64235
ltoes -14.4551
459
root 0.0316029 16.6891 7.74598 4.48046 0.898788 -1.04861
lowerback 10.1713 -1.54163 -0.673994
upperback 3.91774 -2.0604 1.82199
thorax -1.53385 -1.04302 2.49598
lowerneck -12.7349 1.07113 -1.28243
upperneck 24.3974 1.60287 0.716006
head 9.81178 0.697209 0.659558
rclavicle 7.15625e-015 1.19271e-015
rhumerus -19.1818 -14.9603 -82.0303
rradius 24.5433
rwrist 39.3939
rhand -21.3414 -26.8864
rfingers 7.12502
rthumb 5.04476 -56.8064
lclavicle 7.15625e-015 1.19271e-015
lhumerus -10.2506 -1.41234 90.1944
lradius 20.3193
lwrist 15.0213
lhand -24.8793 -9.28976
lfingers 7.12502
lthumb 1.6281 20.6838
rfemur -35.6377 -1.08171 19.497
rtibia 48.8405
rfoot -13.0338 -3.66755
rtoes 8.97318
lfemur -35.1933 7.79832 -20.303
ltibia 43.096
lfoot -12.1186 2.36608
ltoes -14.4351
460
root 0.0367642 16.7646 7.78437 5.10381 0.878746 -0.988004
lowerback 9.89538 -1.61878 -0.668544
upperback 3.83148 -2.16139 1.86195
thorax -1.46596 -1.09365 2.53734
lowerneck -12.7544 1.12256 -1.2671
upperneck 24.2081 1.69009 0.637133
head 9.74815 0.731024 0.638523
rclavicle -1.78906e-015 4.17448e-015
rhumerus -19.7315 -15.3117 -81.7725
rradius 24.3956
rwrist 39.4061
rhand -21.2976 -26.8359
rfingers 7.12502
rthumb 5.08701 -56.7549
lclavicle -1.78906e-015 4.17448e-015
lhumerus -10.3507 -1.33593 90.071
lradius 20.239
lwrist 15.2439
lhand -24.7778 -9.11789
lfingers 7.12502
lthumb 1.72621 20.8549
rfemur -35.048 -1.24315 19.5931
rtibia 46.9612
rfoot -13.1596 -4.12659
rtoes 9.12276
lfemur -34.9625 7.90151 -20.4665
ltibia 41.7594
lfoot -12.0043 2.1106
ltoes -14.4044
461
root 0.0413266 16.8344 7.82149 5.68799 0.803463 -0.919385
lowerback 9.64433 -1.66833 -0.678263
upperback 3.74911 -2.22757 1.88962
thorax -1.40897 -1.12691 2.57106
lowerneck -12.791 1.17696 -1.24428
upperneck 24.0204 1.77839 0.563961
head 9.68858 0.766793 0.618542
rclavicle -1.10325e-014 6.55989e-015
rhumerus -20.2987 -15.6437 -81.516
rradius 24.2483
rwrist 39.4364
rhand -21.2624 -26.7884
rfingers 7.12502
rthumb 5.12103 -56.7066
lclavicle -1.10325e-014 6.55989e-015
lhumerus -10.4406 -1.30994 89.9398
lradius 20.1493
lwrist 15.3415
lhand -24.7804 -9.03258
lfingers 7.12502
lthumb 1.72367 20.9402
rfemur -34.4976 -1.31022 19.6423
rtibia 45.1983
rfoot -13.2982 -4.50586
rtoes 8.86411
lfemur -34.7285 8.01625 -20.6234
ltibia 40.482
lfoot -11.8548 1.87582
ltoes -14.3132
462
root 0.0456258 16.8985 7.85699 6.22465 0.665615 -0.852696
lowerback 9.42939 -1.68829 -0.691837
upperback 3.67419 -2.25509 1.90763
thorax -1.366 -1.14078 2.59382
lowerneck -12.8463 1.22899 -1.21902
upperneck 23.8355 1.86206 0.494376
head 9.63386 0.801133 0.599086
rclavicle 6.4605e-015 5.76476e-015
rhumerus -20.877 -15.9534 -81.2588
rradius 24.0999
rwrist 39.4879
rhand -21.232 -26.7549
rfingers 7.12502
rthumb 5.15038 -56.6723
lclavicle 6.4605e-015 5.76476e-015
lhumerus -10.5178 -1.30908 89.8069
lradius 20.0447
lwrist 15.2592
lhand -24.8626 -8.99269
lfingers 7.12502
lthumb 1.64425 20.9807
rfemur -34.0207 -1.25701 19.6371
rtibia 43.5966
rfoot -13.4164 -4.78227
rtoes 8.0995
lfemur -34.4906 8.13215 -20.7579
ltibia 39.2762
lfoot -11.6516 1.66613
ltoes -14.1221
463
root 0.0498421 16.9565 7.89067 6.70955 0.457972 -0.795839
lowerback 9.25846 -1.67638 -0.702555
upperback 3.60545 -2.24022 1.91679
thorax -1.34325 -1.13329 2.60301
lowerneck -12.9082 1.27993 -1.18983
upperneck 23.6489 1.94278 0.426544
head 9.58007 0.834786 0.579328
rclavicle 2.38542e-015 -4.37326e-015
rhumerus -21.4576 -16.2723 -80.9992
rradius 23.9355
rwrist 39.5917
rhand -21.2176 -26.7242
rfingers 7.12502
rthumb 5.16425 -56.6412
lclavicle 2.38542e-015 -4.37326e-015
lhumerus -10.5771 -1.33144 89.6725
lradius 19.9168
lwrist 15.013
lhand -25.01 -9.04196
lfingers 7.12502
lthumb 1.50195 20.9325
rfemur -33.6422 -1.08388 19.5845
rtibia 42.1938
rfoot -13.4884 -4.95354
rtoes 6.88226
lfemur -34.2523 8.2424 -20.8588
ltibia 38.1571
lfoot -11.3864 1.495
ltoes -13.8104
464
root 0.0541897 17.0083 7.92234 7.13869 0.187951 -0.767262
lowerback 9.13361 -1.63751 -0.691953
upperback 3.55007 -2.18783 1.92258
thorax -1.33478 -1.10689 2.5945
lowerneck -12.9918 1.33383 -1.15498
upperneck 23.4634 2.02628 0.359662
head 9.53099 0.870381 0.559544
rclavicle 2.97183e-014 -2.88238e-014
rhumerus -22.023 -16.6032 -80.7416
rradius 23.7503
rwrist 39.7388
rhand -21.2128 -26.7122
rfingers 7.12502
rthumb 5.16887 -56.6292
lclavicle 2.97183e-014 -2.88238e-014
lhumerus -10.6164 -1.36567 89.5369
lradius 19.778
lwrist 14.648
lhand -25.1631 -9.07432
lfingers 7.12502
lthumb 1.35404 20.9011
rfemur -33.3657 -0.827545 19.5176
rtibia 41.0039
rfoot -13.5108 -5.00801
rtoes 5.40924
lfemur -34.0162 8.33874 -20.9075
ltibia 37.1376
lfoot -11.0628 1.37628
ltoes -13.3589
465
root 0.0589678 17.0543 7.95285 7.50915 -0.138079 -0.769027
lowerback 9.05475 -1.5761 -0.65873
upperback 3.50502 -2.10363 1.92757
thorax -1.34327 -1.0644 2.57091
lowerneck -13.0737 1.3885 -1.12327
upperneck 23.2676 2.11008 0.297589
head 9.4781 0.906547 0.541949
rclavicle -6.65929e-015 1.68967e-014
rhumerus -22.5778 -16.9517 -80.4788
rradius 23.5407
rwrist 39.9341
rhand -21.2077 -26.7085
rfingers 7.12502
rthumb 5.17383 -56.6253
lclavicle -6.65929e-015 1.68967e-014
lhumerus -10.6486 -1.38132 89.4025
lradius 19.6349
lwrist 14.213
lhand -25.2865 -9.07129
lfingers 7.12502
lthumb 1.23484 20.9049
rfemur -33.1699 -0.540118 19.4603
rtibia 40.0163
rfoot -13.4808 -4.9337
rtoes 4.07781
lfemur -33.7729 8.42409 -20.9079
ltibia 36.223
lfoot -10.7005 1.32212
ltoes -12.7725
466
root 0.0644389 17.0949 7.98296 7.82092 -0.511112 -0.794498
lowerback 9.01069 -1.49807 -0.605863
upperback 3.47505 -1.99593 1.92845
thorax -1.35719 -1.01013 2.5307
lowerneck -13.156 1.44744 -1.09428
upperneck 23.0602 2.19749 0.246326
head 9.4212 0.945522 0.528919
rclavicle 1.90833e-014 -2.5842e-014
rhumerus -23.1138 -17.3252 -80.2138
rradius 23.3051
rwrist 40.1885
rhand -21.2008 -26.7241
rfingers 7.12502
rthumb 5.18047 -56.6408
lclavicle 1.90833e-014 -2.5842e-014
lhumerus -10.673 -1.39057 89.2638
lradius 19.4953
lwrist 13.7962
lhand -25.3661 -9.03774
lfingers 7.12502
lthumb 1.158 20.9389
rfemur -33.0211 -0.280396 19.4307
rtibia 39.1951
rfoot -13.4043 -4.74029
rtoes 3.16369
lfemur -33.5141 8.50344 -20.8748
ltibia 35.4085
lfoot -10.3155 1.33626
ltoes -12.0485
467
root 0.0705219 17.1309 8.01326 8.08276 -0.911977 -0.823286
lowerback 8.98941 -1.41278 -0.553258
upperback 3.45775 -1.87887 1.92152
thorax -1.37101 -0.951274 2.48215
lowerneck -13.2399 1.51328 -1.06406
upperneck 22.843 2.29177 0.203704
head 9.36125 0.988895 0.519434
rclavicle -7.55382e-015 -1.76918e-014
rhumerus -23.6218 -17.7401 -79.9457
rradius 23.0341
rwrist 40.525
rhand -21.1882 -26.7515
rfingers 7.12502
rthumb 5.19268 -56.6679
lclavicle -7.55382e-015 -1.76918e-014
lhumerus -10.7002 -1.38687 89.12
lradius 19.3732
lwrist 13.4598
lhand -25.3993 -8.98886
lfingers 7.12502
lthumb 1.12593 20.9879
rfemur -32.8879 -0.0884382 19.4222
rtibia 38.4917
rfoot -13.282 -4.45319
rtoes 2.74097
lfemur -33.2383 8.57684 -20.8383
ltibia 34.6787
lfoot -9.92177 1.41162
ltoes -11.2353
468
root 0.0771435 17.1634 8.0447 8.29749 -1.33111 -0.848001
lowerback 8.97902 -1.32497 -0.50828
upperback 3.45173 -1.7594 1.90687
thorax -1.37901 -0.891387 2.4298
lowerneck -13.3128 1.58447 -1.03508
upperneck 22.6136 2.39156 0.168055
head 9.295 1.03569 0.512989
rclavicle -1.03368e-014 -5.96354e-016
rhumerus -24.1074 -18.185 -79.6686
rradius 22.731
rwrist 40.9372
rhand -21.1654 -26.7883
rfingers 7.12502
rthumb 5.21463 -56.7041
lclavicle -1.03368e-014 -5.96354e-016
lhumerus -10.7308 -1.367 88.9703
lradius 19.2655
lwrist 13.231
lhand -25.3878 -8.94028
lfingers 7.12502
lthumb 1.13699 21.0364
rfemur -32.7344 0.0342285 19.4278
rtibia 37.8574
rfoot -13.1121 -4.10424
rtoes 2.69858
lfemur -32.936 8.64619 -20.8084
ltibia 34.0152
lfoot -9.5333 1.54402
ltoes -10.3887
469
root 0.0840217 17.1928 8.07758 8.47262 -1.75096 -0.856575
lowerback 8.96634 -1.24151 -0.481102
upperback 3.45918 -1.64763 1.88166
thorax -1.37102 -0.835629 2.37699
lowerneck -13.3875 1.66462 -1.00426
upperneck 22.3779 2.50087 0.14155
head 9.22698 1.08818 0.510441
rclavicle 4.57205e-015 -2.78299e-015
rhumerus -24.5593 -18.6783 -79.3843
rradius 22.3943
rwrist 41.4423
rhand -21.1407 -26.8136
rfingers 7.12502
rthumb 5.23851 -56.7288
lclavicle 4.57205e-015 -2.78299e-015
lhumerus -10.7566 -1.35059 88.8118
lradius 19.1711
lwrist 13.1223
lhand -25.3491 -8.90045
lfingers 7.12502
lthumb 1.17435 21.0761
rfemur -32.5458 0.0964436 19.4304
rtibia 37.2548
rfoot -12.9081 -3.7352
rtoes 2.82582
lfemur -32.611 8.7039 -20.7975
ltibia 33.4022
lfoot -9.15601 1.7235
ltoes -9.59847
